<?xml version="1.0" encoding="UTF-8"?>
<svg id="Layer_2" data-name="Layer 2" xmlns="http://www.w3.org/2000/svg" xmlns:xlink="http://www.w3.org/1999/xlink" viewBox="0 0 637.24 153.11">
  <defs>
    <style>
      .cls-1 {
        mask: url(#mask);
      }

      .cls-2 {
        fill: url(#Linear_Gradient_1);
      }

      .cls-3 {
        fill: url(#radial-gradient-7);
      }

      .cls-4 {
        fill: url(#radial-gradient-6);
      }

      .cls-5 {
        fill: url(#radial-gradient-5);
      }

      .cls-6 {
        fill: url(#radial-gradient-4);
      }

      .cls-7 {
        fill: url(#radial-gradient-9);
      }

      .cls-8 {
        fill: url(#radial-gradient-8);
      }

      .cls-9 {
        fill: url(#radial-gradient-3);
      }

      .cls-10 {
        fill: url(#radial-gradient-2);
      }

      .cls-11 {
        fill: url(#radial-gradient);
      }

      .cls-12 {
        fill: url(#Linear_Gradient_1-7);
      }

      .cls-13 {
        fill: url(#Linear_Gradient_1-6);
      }

      .cls-14 {
        fill: url(#Linear_Gradient_1-3);
      }

      .cls-15 {
        fill: url(#Linear_Gradient_1-2);
      }

      .cls-16 {
        fill: url(#Linear_Gradient_1-9);
      }

      .cls-17 {
        fill: url(#Linear_Gradient_1-8);
      }

      .cls-18 {
        fill: url(#Linear_Gradient_1-5);
      }

      .cls-19 {
        fill: url(#Linear_Gradient_1-4);
      }

      .cls-20 {
        fill: #139fda;
      }

      .cls-21 {
        mask: url(#mask-2);
      }

      .cls-22 {
        mask: url(#mask-1);
      }

      .cls-23 {
        fill: url(#radial-gradient-16);
      }

      .cls-24 {
        fill: url(#radial-gradient-12);
      }

      .cls-25 {
        fill: url(#radial-gradient-14);
      }

      .cls-26 {
        fill: url(#radial-gradient-13);
      }

      .cls-27 {
        fill: url(#radial-gradient-10);
      }

      .cls-28 {
        fill: url(#radial-gradient-11);
      }

      .cls-29 {
        fill: url(#radial-gradient-15);
      }

      .cls-30 {
        opacity: .85;
      }

      .cls-31 {
        opacity: .7;
      }

      .cls-32 {
        opacity: .95;
      }

      .cls-33 {
        fill: #919395;
      }

      .cls-34 {
        fill: #63b946;
      }

      .cls-35 {
        fill: url(#Linear_Gradient_1-10);
      }

      .cls-36 {
        fill: url(#Linear_Gradient_1-11);
      }

      .cls-37 {
        fill: url(#Linear_Gradient_1-12);
      }

      .cls-38 {
        fill: url(#Linear_Gradient_1-13);
      }
    </style>
    <radialGradient id="radial-gradient" cx="209.37" cy="478.8" fx="209.37" fy="478.8" r="67.57" gradientTransform="translate(-72.29 -221.73) scale(.54)" gradientUnits="userSpaceOnUse">
      <stop offset="0" stop-color="#48b468"/>
      <stop offset=".1" stop-color="#46b46d"/>
      <stop offset=".23" stop-color="#41b67e"/>
      <stop offset=".38" stop-color="#39b999"/>
      <stop offset=".55" stop-color="#2ebdbf"/>
      <stop offset=".72" stop-color="#1fc2f0"/>
      <stop offset=".73" stop-color="#1fc3f3"/>
    </radialGradient>
    <radialGradient id="radial-gradient-2" cx="205.16" cy="548.8" fx="205.16" fy="548.8" r="96.01" gradientTransform="translate(-72.29 -221.73) scale(.54)" gradientUnits="userSpaceOnUse">
      <stop offset="0" stop-color="#aedee4"/>
      <stop offset=".4" stop-color="#71cee7"/>
      <stop offset="1" stop-color="#1db9ec"/>
    </radialGradient>
    <radialGradient id="radial-gradient-3" cx="-69.01" cy="291.13" fx="-69.01" fy="291.13" r="73.83" gradientTransform="translate(2.67 -98.77) rotate(-35.12) scale(.61 .45)" gradientUnits="userSpaceOnUse">
      <stop offset="0" stop-color="#49b465"/>
      <stop offset=".15" stop-color="#48b46a"/>
      <stop offset=".34" stop-color="#45b47b"/>
      <stop offset=".56" stop-color="#42b596"/>
      <stop offset=".8" stop-color="#3db6bc"/>
      <stop offset="1" stop-color="#38b8e2"/>
    </radialGradient>
    <linearGradient id="Linear_Gradient_1" data-name="Linear Gradient 1" x1="41.12" y1="114.31" x2="-15.67" y2="111.84" gradientUnits="userSpaceOnUse">
      <stop offset="0" stop-color="#fff"/>
      <stop offset="1" stop-color="#000"/>
    </linearGradient>
    <linearGradient id="Linear_Gradient_1-2" data-name="Linear Gradient 1" x1="42.54" y1="81.63" x2="-14.25" y2="79.16" xlink:href="#Linear_Gradient_1"/>
    <linearGradient id="Linear_Gradient_1-3" data-name="Linear Gradient 1" x1="42.54" y1="81.63" x2="-14.25" y2="79.16" xlink:href="#Linear_Gradient_1"/>
    <linearGradient id="Linear_Gradient_1-4" data-name="Linear Gradient 1" x1="42.25" y1="88.07" x2="-14.52" y2="85.61" xlink:href="#Linear_Gradient_1"/>
    <linearGradient id="Linear_Gradient_1-5" data-name="Linear Gradient 1" x1="42.42" y1="84.27" x2="-14.36" y2="81.8" xlink:href="#Linear_Gradient_1"/>
    <linearGradient id="Linear_Gradient_1-6" data-name="Linear Gradient 1" x1="42.36" y1="85.72" x2="-14.43" y2="83.25" xlink:href="#Linear_Gradient_1"/>
    <linearGradient id="Linear_Gradient_1-7" data-name="Linear Gradient 1" x1="42.36" y1="85.72" x2="-14.43" y2="83.25" xlink:href="#Linear_Gradient_1"/>
    <linearGradient id="Linear_Gradient_1-8" data-name="Linear Gradient 1" x1="42.24" y1="88.44" x2="-14.54" y2="85.97" xlink:href="#Linear_Gradient_1"/>
    <linearGradient id="Linear_Gradient_1-9" data-name="Linear Gradient 1" x1="44.16" y1="44.35" x2="-12.63" y2="41.88" xlink:href="#Linear_Gradient_1"/>
    <linearGradient id="Linear_Gradient_1-10" data-name="Linear Gradient 1" x1="43.07" y1="69.46" x2="-13.72" y2="66.99" xlink:href="#Linear_Gradient_1"/>
    <mask id="mask" x="0" y="18.02" width="109.71" height="102.46" maskUnits="userSpaceOnUse">
      <g>
        <path class="cls-2" d="M52.97,120.05c-10.37-1.61-20.4-5.69-29.01-11.71,8.27,6.25,18.2,10.41,29.01,11.71Z"/>
        <path class="cls-15" d="M15.73,84.19c1.58,1.13,3.22,1.99,4.91,2.62-5.48-2.48-9.75-7.01-12.58-12.83.9,2.15,2.11,4.16,3.72,5.96,1.16,1.58,2.48,3.01,3.95,4.24Z"/>
        <path class="cls-14" d="M15.73,84.19c1.58,1.13,3.22,1.99,4.91,2.62-5.48-2.48-9.75-7.01-12.58-12.83.9,2.15,2.11,4.16,3.72,5.96,1.16,1.58,2.48,3.01,3.95,4.24Z"/>
        <path class="cls-19" d="M20.64,86.81c.57.26,1.14.54,1.75.71-.6-.21-1.18-.46-1.75-.71Z"/>
        <path class="cls-18" d="M51.21,82.15c17.3-8.11,43.7-2.94,58.5,12.46-14.81-15.4-41.5-21.17-58.5-12.46Z"/>
        <path class="cls-13" d="M51.21,82.15c-14.71,6.89-21.5,7.51-28.81,5.38,6.03,2.14,11.51,3.49,28.81-5.38Z"/>
        <path class="cls-12" d="M51.21,82.15c-14.71,6.89-21.5,7.51-28.81,5.38,6.03,2.14,11.51,3.49,28.81-5.38Z"/>
        <path class="cls-17" d="M51.21,82.15c-17.3,8.87-22.78,7.52-28.81,5.38-.61-.18-1.18-.46-1.75-.71-1.69-.64-3.33-1.5-4.91-2.62-1.48-1.23-2.8-2.66-3.95-4.24-1.6-1.8-2.82-3.81-3.72-5.96-2.58-5.3-3.98-11.68-4.01-18.53-1.95,4.21-3.18,8.31-3.6,12.16,2.03,16.6,10.81,31.12,23.52,40.72,8.61,6.01,18.63,10.1,29.01,11.71,2.38.29,4.81.44,7.27.44,11.56,0,22.37-3.26,31.54-8.91,7.08-4.36,13.19-10.15,17.93-16.96-14.81-15.4-41.2-20.57-58.5-12.46Z"/>
        <path class="cls-16" d="M7.46,35.91c2.45-6.89,5.98-12.95,10.16-17.89-1.39,1.33-2.73,2.7-4.03,4.11C5.1,32.51,0,45.78,0,60.24,0,62.74.15,65.2.45,67.62c.42-3.85,1.65-7.96,3.6-12.16-.03-6.25,1.06-12.91,3.41-19.54Z"/>
        <path class="cls-35" d="M51.21,82.15c-17.3,8.87-22.78,7.52-28.81,5.38-.61-.18-1.18-.46-1.75-.71-1.69-.64-3.33-1.5-4.91-2.62-1.48-1.23-2.8-2.66-3.95-4.24-1.6-1.8-2.82-3.81-3.72-5.96-2.58-5.3-3.98-11.68-4.01-18.53-.03-6.25,1.06-12.91,3.41-19.54,2.45-6.89,5.98-12.95,10.16-17.89-1.39,1.33-2.73,2.7-4.03,4.11C5.1,32.51,0,45.78,0,60.24,0,62.74.15,65.2.45,67.62c2.03,16.6,10.81,31.12,23.52,40.72,8.61,6.01,18.63,10.1,29.01,11.71,2.38.29,4.81.44,7.27.44,11.56,0,22.37-3.26,31.54-8.91,7.08-4.36,13.19-10.15,17.93-16.96-14.81-15.4-41.2-20.57-58.5-12.46Z"/>
      </g>
    </mask>
    <radialGradient id="radial-gradient-4" cx="177.01" cy="564.35" fx="177.01" fy="564.35" r="175.95" gradientTransform="translate(-72.29 -221.73) scale(.54)" gradientUnits="userSpaceOnUse">
      <stop offset="0" stop-color="#1fc3f3"/>
      <stop offset="1" stop-color="#0297cf"/>
    </radialGradient>
    <radialGradient id="radial-gradient-5" cx="177.01" cy="564.35" fx="177.01" fy="564.35" r="175.95" xlink:href="#radial-gradient-4"/>
    <radialGradient id="radial-gradient-6" cx="177.01" cy="564.35" fx="177.01" fy="564.35" r="175.95" xlink:href="#radial-gradient-4"/>
    <radialGradient id="radial-gradient-7" cx="177.01" cy="564.35" fx="177.01" fy="564.35" r="176.02" xlink:href="#radial-gradient-4"/>
    <radialGradient id="radial-gradient-8" cx="177.01" cy="564.35" fx="177.01" fy="564.35" r="175.95" xlink:href="#radial-gradient-4"/>
    <radialGradient id="radial-gradient-9" cx="177.01" cy="564.35" fx="177.01" fy="564.35" r="175.95" xlink:href="#radial-gradient-4"/>
    <radialGradient id="radial-gradient-10" cx="177.01" cy="564.35" fx="177.01" fy="564.35" r="175.95" xlink:href="#radial-gradient-4"/>
    <radialGradient id="radial-gradient-11" cx="177.01" cy="564.35" fx="177.01" fy="564.35" r="175.95" xlink:href="#radial-gradient-4"/>
    <radialGradient id="radial-gradient-12" cx="177.01" cy="564.35" fx="177.01" fy="564.35" r="175.95" xlink:href="#radial-gradient-4"/>
    <radialGradient id="radial-gradient-13" cx="177.01" cy="564.35" fx="177.01" fy="564.35" r="175.95" gradientTransform="translate(-72.29 -221.73) scale(.54)" gradientUnits="userSpaceOnUse">
      <stop offset="0" stop-color="#1fc3f3"/>
      <stop offset="1" stop-color="#1aa3dd"/>
    </radialGradient>
    <linearGradient id="Linear_Gradient_1-11" data-name="Linear Gradient 1" x1="86.39" y1="82.19" x2="224.9" y2="37.91" xlink:href="#Linear_Gradient_1"/>
    <mask id="mask-1" x="33.56" y="40.12" width="87.19" height="80.36" maskUnits="userSpaceOnUse">
      <g class="cls-30">
        <path class="cls-36" d="M76.13,78.41c-8.17,25.35-14.79,29.36-22.71,33.12-.76.42-1.59.7-2.39,1.01-2.26,1.02-4.68,1.78-7.3,2.22-2.63.24-5.29.13-7.94-.28-.75-.04-1.5-.12-2.23-.22,8.04,3.98,17.1,6.22,26.68,6.22,11.56,0,22.37-3.26,31.54-8.91,15.74-9.69,26.68-26.42,28.44-45.81.09-1.04.36-4.37.41-4.91.02-.17.02-.33.04-.5.03-.38.05-.76.06-1.14,0-.18.01-.36.02-.53,0-.39,0-.78,0-1.17,0-.14,0-.28,0-.42-.02-.53-.04-1.06-.08-1.59,0,0,0-.02,0-.02-.04-.51-.1-1.02-.16-1.53-.02-.13-.04-.26-.05-.39-.06-.39-.12-.78-.19-1.17-.02-.13-.05-.27-.08-.4-.08-.42-.17-.83-.27-1.24-.02-.08-.04-.16-.06-.25-.14-.58-.18-.92-.33-1.38-.08-.44-.23-.72-.43-1.42-1.03-2.81-2.43-5.37-4.16-7.57-17.91,7.86-32.98,22.21-38.8,38.29Z"/>
      </g>
    </mask>
    <radialGradient id="radial-gradient-14" cx="-574.92" cy="-296.36" fx="-574.92" fy="-296.36" r="140.49" gradientTransform="translate(405.43 -33.48) rotate(-45) scale(.54)" gradientUnits="userSpaceOnUse">
      <stop offset="0" stop-color="#c8d82d"/>
      <stop offset="1" stop-color="#0aaf58"/>
    </radialGradient>
    <linearGradient id="Linear_Gradient_1-12" data-name="Linear Gradient 1" x1="0" y1="46.42" x2="87.49" y2="46.42" xlink:href="#Linear_Gradient_1"/>
    <linearGradient id="Linear_Gradient_1-13" data-name="Linear Gradient 1" x1="0" y1="46.42" x2="87.49" y2="46.42" xlink:href="#Linear_Gradient_1"/>
    <mask id="mask-2" x="0" y="0" width="87.49" height="92.85" maskUnits="userSpaceOnUse">
      <g>
        <path class="cls-37" d="M38.38,14.57c7.3-3.29,15.4-5.12,23.93-5.12,1.14,0,2.26.04,3.38.11,2.39.23,7.79.37,13.41,2.84,1.78.78,3.22,1.65,4.34,2.47,1.12.73,2.08,1.61,2.87,2.58.19.24.37.48.54.73.03-.08.07-.16.1-.24,1.2-3.28.34-6.87-1.94-9.68-.82-1-1.81-1.91-2.96-2.66-1.16-.84-2.64-1.74-4.48-2.55C71.76.49,66.2.35,63.73.11c-1.16-.07-2.32-.11-3.49-.11-8.8,0-17.17,1.89-24.71,5.28C14.59,14.72,0,35.77,0,60.24,0,72.26,3.52,83.45,9.58,92.85c-3.61-7.59-5.63-16.07-5.63-25.03,0-23.7,14.13-44.11,34.43-53.24Z"/>
        <path class="cls-38" d="M38.38,14.57c7.3-3.29,15.4-5.12,23.93-5.12,1.14,0,2.26.04,3.38.11,2.39.23,7.79.37,13.41,2.84,1.78.78,3.22,1.65,4.34,2.47,1.12.73,2.08,1.61,2.87,2.58.19.24.37.48.54.73.03-.08.07-.16.1-.24,1.2-3.28.34-6.87-1.94-9.68-.82-1-1.81-1.91-2.96-2.66-1.16-.84-2.64-1.74-4.48-2.55C71.76.49,66.2.35,63.73.11c-1.16-.07-2.32-.11-3.49-.11-8.8,0-17.17,1.89-24.71,5.28C14.59,14.72,0,35.77,0,60.24,0,72.26,3.52,83.45,9.58,92.85c-3.61-7.59-5.63-16.07-5.63-25.03,0-23.7,14.13-44.11,34.43-53.24Z"/>
      </g>
    </mask>
    <radialGradient id="radial-gradient-15" cx="191.25" cy="439.37" fx="191.25" fy="439.37" r="151.13" gradientTransform="translate(-72.29 -221.73) scale(.54)" gradientUnits="userSpaceOnUse">
      <stop offset="0" stop-color="#fff"/>
      <stop offset="1" stop-color="#1bb7eb"/>
    </radialGradient>
    <radialGradient id="radial-gradient-16" cx="191.25" cy="439.37" fx="191.25" fy="439.37" r="151.13" gradientTransform="translate(-72.29 -221.73) scale(.54)" gradientUnits="userSpaceOnUse">
      <stop offset="0" stop-color="#48b468"/>
      <stop offset=".14" stop-color="#46b46d"/>
      <stop offset=".32" stop-color="#41b67e"/>
      <stop offset=".53" stop-color="#39b999"/>
      <stop offset=".75" stop-color="#2ebdbf"/>
      <stop offset=".99" stop-color="#1fc2f0"/>
      <stop offset="1" stop-color="#1fc3f3"/>
    </radialGradient>
  </defs>
  <g id="Layer_1-2" data-name="Layer 1">
    <g>
      <g>
        <path class="cls-20" d="M469.5,115.06c-5.66,0-8.49-4.13-8.49-12.37v-57.03c0-8.18,2.83-12.27,8.49-12.27,3.22,0,5.91,1.83,8.06,5.48,3.73-3.87,8.38-5.8,13.97-5.8,7.74,0,14.08,3.08,19.02,9.24,4.51,5.73,6.77,12.57,6.77,20.52s-2.33,14.86-6.98,20.74c-4.94,6.44-11.29,9.67-19.02,9.67-5.3,0-9.74-1.65-13.32-4.94v14.4c0,8.23-2.84,12.36-8.49,12.36ZM477.67,63.05c0,3.94.86,7.2,2.58,9.78,2.01,3.08,4.87,4.62,8.6,4.62s6.59-1.54,8.6-4.62c1.72-2.65,2.58-5.91,2.58-9.78s-.9-6.91-2.69-9.56c-2.08-3.08-4.91-4.62-8.49-4.62s-6.41,1.54-8.49,4.62c-1.79,2.65-2.69,5.84-2.69,9.56Z"/>
        <path class="cls-20" d="M562.34,86.26c-3.37,4.23-8.1,6.34-14.19,6.34-7.73,0-14.04-3.11-18.91-9.33-4.51-5.72-6.77-12.55-6.77-20.49s2.37-14.8,7.09-20.59c5.01-6.23,11.42-9.33,19.23-9.33,5.44,0,9.95,2.01,13.54,6.02,1.94-3.65,4.62-5.48,8.06-5.48,5.59,0,8.38,4.09,8.38,12.27v34.13c0,8.25-2.8,12.38-8.38,12.38-3.51,0-6.2-1.97-8.06-5.91ZM539.99,62.56c0,3.82.86,6.98,2.58,9.5,2,2.95,4.8,4.42,8.38,4.42s6.27-1.47,8.27-4.42c1.72-2.59,2.58-5.75,2.58-9.5s-.89-6.69-2.69-9.28c-2-2.87-4.72-4.31-8.16-4.31s-6.38,1.41-8.38,4.21c-1.72,2.52-2.58,5.65-2.58,9.38Z"/>
        <path class="cls-20" d="M628.96,33.39c2.44,0,4.43.74,5.97,2.2,1.54,1.47,2.31,3.42,2.31,5.86,0,1.72-.47,3.69-1.4,5.91l-25.8,61.25c-1.93,4.59-4.41,6.88-7.41,6.88-2.5,0-4.53-.73-6.07-2.2-1.54-1.47-2.31-3.46-2.31-5.97s1.14-6.16,3.44-10.96c1.64-3.37,3.29-6.7,4.94-9.99l-17.09-39.87c-.57-1.36-.86-3.19-.86-5.48,0-2.08.82-3.87,2.47-5.37,1.64-1.51,3.55-2.26,5.69-2.26,2.36,0,4.27.83,5.7,2.49.93,1.14,1.9,3.05,2.9,5.7l9.57,25.66,10.42-27.05c1.72-4.53,4.23-6.79,7.52-6.79Z"/>
      </g>
      <g>
        <g>
          <path class="cls-11" d="M61.54,46.34c0,5.85-4.74,10.59-10.59,10.59s-10.59-4.74-10.59-10.59,4.74-10.6,10.59-10.6,10.59,4.74,10.59,10.6Z"/>
          <path class="cls-10" d="M120.74,57.09c-.02-.53-.04-1.06-.08-1.59,0,0,0-.02,0-.02-.04-.51-.1-1.02-.16-1.53-.02-.13-.04-.26-.05-.39-.06-.39-.12-.78-.19-1.17-.02-.13-.05-.27-.08-.4-.08-.42-.17-.83-.27-1.24-.02-.08-.04-.16-.06-.25-.14-.58-.18-.92-.33-1.38-.08-.44-.23-.72-.43-1.42-2.29-6.28-6.48-11.32-11.96-13.9-.11-.05-.22-.11-.34-.16-.07-.03-.15-.06-.22-.1-.12-.05-.24-.1-.36-.15-.22-.09-.44-.18-.66-.26-.06-.02-.12-.05-.18-.07.05.02.1.04.15.06-1.33-.5-2.73-.86-4.18-1.05-1.49-.2-2.97-.22-4.43-.08.07,0,.14-.02.21-.02-.08,0-.16.02-.25.03-.12.01-.24.02-.35.04-.38.04-.76.1-1.13.16-3.49.59-6.81,2.11-9.73,4.35l.16-.11s-2.66,1.88-5.64,6.89c-1.66,2.79-3.41,6.55-4.86,11.5-.1.39-.21.78-.33,1.16,0,0,0,0,0,0-.94,3.45-2.23,5.99-3.47,8.16-1.57,2.73-3.2,4.82-5.62,6.82-4.83,4.5-10.9,7.05-17.24,6.78-.98-.03-1.96-.12-2.94-.29-13.93-2.36-22.92-17.81-20.1-34.52.03-.16.06-.31.09-.47,1.52-8.79,6.04-16.18,12.06-20.76,2.62-1.99,5.52-3.44,8.57-4.26.98-.26,1.97-.46,2.97-.58,1.31-.18,2.63-.25,3.97-.19.27.01.54.03.82.06,1.61.14,3.4.48,5.38,1.13.99.33,2.03.74,3.11,1.24,4.26,1.99,6.94,3.44,9.48,4.33.01,0,.02,0,.03.01,0,0,.02,0,.02,0,.36.13.73.25,1.09.35.04.01.07.02.11.03,5.87,1.57,11.81-.92,13.63-5.9,1.2-3.28.34-6.87-1.94-9.68-.82-1-1.81-1.91-2.96-2.66-1.16-.84-2.64-1.74-4.48-2.55C71.76.49,66.2.35,63.73.11c-1.16-.07-2.32-.11-3.49-.11-8.8,0-17.17,1.89-24.71,5.28C14.59,14.72,0,35.77,0,60.24,0,93.51,26.97,120.48,60.24,120.48c11.56,0,22.37-3.26,31.54-8.91,15.74-9.69,26.68-26.42,28.44-45.81.09-1.04.36-4.37.41-4.91.02-.17.02-.33.04-.5.03-.38.05-.76.06-1.14,0-.18.01-.36.02-.53,0-.39,0-.78,0-1.17,0-.14,0-.28,0-.42Z"/>
          <path class="cls-9" d="M7.46,35.91c2.45-6.89,5.98-12.95,10.16-17.89-1.39,1.33-2.73,2.7-4.03,4.11C5.1,32.51,0,45.78,0,60.24,0,62.74.15,65.2.45,67.62c.42-3.85,1.65-7.96,3.6-12.16-.03-6.25,1.06-12.91,3.41-19.54Z"/>
          <g class="cls-1">
            <g class="cls-31">
              <path class="cls-6" d="M52.97,120.05c-10.37-1.61-20.4-5.69-29.01-11.71,8.27,6.25,18.2,10.41,29.01,11.71Z"/>
              <path class="cls-5" d="M15.73,84.19c1.58,1.13,3.22,1.99,4.91,2.62-5.48-2.48-9.75-7.01-12.58-12.83.9,2.15,2.11,4.16,3.72,5.96,1.16,1.58,2.48,3.01,3.95,4.24Z"/>
              <path class="cls-4" d="M15.73,84.19c1.58,1.13,3.22,1.99,4.91,2.62-5.48-2.48-9.75-7.01-12.58-12.83.9,2.15,2.11,4.16,3.72,5.96,1.16,1.58,2.48,3.01,3.95,4.24Z"/>
              <path class="cls-3" d="M20.64,86.81c.57.26,1.14.54,1.75.71-.6-.21-1.18-.46-1.75-.71Z"/>
              <path class="cls-8" d="M51.21,82.15c17.3-8.11,43.7-2.94,58.5,12.46-14.81-15.4-41.5-21.17-58.5-12.46Z"/>
              <path class="cls-7" d="M51.21,82.15c-14.71,6.89-21.5,7.51-28.81,5.38,6.03,2.14,11.51,3.49,28.81-5.38Z"/>
              <path class="cls-27" d="M51.21,82.15c-14.71,6.89-21.5,7.51-28.81,5.38,6.03,2.14,11.51,3.49,28.81-5.38Z"/>
              <path class="cls-28" d="M51.21,82.15c-17.3,8.87-22.78,7.52-28.81,5.38-.61-.18-1.18-.46-1.75-.71-1.69-.64-3.33-1.5-4.91-2.62-1.48-1.23-2.8-2.66-3.95-4.24-1.6-1.8-2.82-3.81-3.72-5.96-2.58-5.3-3.98-11.68-4.01-18.53-1.95,4.21-3.18,8.31-3.6,12.16,2.03,16.6,10.81,31.12,23.52,40.72,8.61,6.01,18.63,10.1,29.01,11.71,2.38.29,4.81.44,7.27.44,11.56,0,22.37-3.26,31.54-8.91,7.08-4.36,13.19-10.15,17.93-16.96-14.81-15.4-41.2-20.57-58.5-12.46Z"/>
              <path class="cls-24" d="M7.46,35.91c2.45-6.89,5.98-12.95,10.16-17.89-1.39,1.33-2.73,2.7-4.03,4.11C5.1,32.51,0,45.78,0,60.24,0,62.74.15,65.2.45,67.62c.42-3.85,1.65-7.96,3.6-12.16-.03-6.25,1.06-12.91,3.41-19.54Z"/>
              <path class="cls-26" d="M51.21,82.15c-17.3,8.87-22.78,7.52-28.81,5.38-.61-.18-1.18-.46-1.75-.71-1.69-.64-3.33-1.5-4.91-2.62-1.48-1.23-2.8-2.66-3.95-4.24-1.6-1.8-2.82-3.81-3.72-5.96-2.58-5.3-3.98-11.68-4.01-18.53-.03-6.25,1.06-12.91,3.41-19.54,2.45-6.89,5.98-12.95,10.16-17.89-1.39,1.33-2.73,2.7-4.03,4.11C5.1,32.51,0,45.78,0,60.24,0,62.74.15,65.2.45,67.62c2.03,16.6,10.81,31.12,23.52,40.72,8.61,6.01,18.63,10.1,29.01,11.71,2.38.29,4.81.44,7.27.44,11.56,0,22.37-3.26,31.54-8.91,7.08-4.36,13.19-10.15,17.93-16.96-14.81-15.4-41.2-20.57-58.5-12.46Z"/>
            </g>
          </g>
          <g class="cls-22">
            <g class="cls-32">
              <path class="cls-25" d="M76.13,78.41c-8.17,25.35-14.79,29.36-22.71,33.12-.76.42-1.59.7-2.39,1.01-2.26,1.02-4.68,1.78-7.3,2.22-2.63.24-5.29.13-7.94-.28-.75-.04-1.5-.12-2.23-.22,8.04,3.98,17.1,6.22,26.68,6.22,11.56,0,22.37-3.26,31.54-8.91,15.74-9.69,26.68-26.42,28.44-45.81.09-1.04.36-4.37.41-4.91.02-.17.02-.33.04-.5.03-.38.05-.76.06-1.14,0-.18.01-.36.02-.53,0-.39,0-.78,0-1.17,0-.14,0-.28,0-.42-.02-.53-.04-1.06-.08-1.59,0,0,0-.02,0-.02-.04-.51-.1-1.02-.16-1.53-.02-.13-.04-.26-.05-.39-.06-.39-.12-.78-.19-1.17-.02-.13-.05-.27-.08-.4-.08-.42-.17-.83-.27-1.24-.02-.08-.04-.16-.06-.25-.14-.58-.18-.92-.33-1.38-.08-.44-.23-.72-.43-1.42-1.03-2.81-2.43-5.37-4.16-7.57-17.91,7.86-32.98,22.21-38.8,38.29Z"/>
            </g>
          </g>
          <g class="cls-21">
            <g>
              <path class="cls-29" d="M38.38,14.57c7.3-3.29,15.4-5.12,23.93-5.12,1.14,0,2.26.04,3.38.11,2.39.23,7.79.37,13.41,2.84,1.78.78,3.22,1.65,4.34,2.47,1.12.73,2.08,1.61,2.87,2.58.19.24.37.48.54.73.03-.08.07-.16.1-.24,1.2-3.28.34-6.87-1.94-9.68-.82-1-1.81-1.91-2.96-2.66-1.16-.84-2.64-1.74-4.48-2.55C71.76.49,66.2.35,63.73.11c-1.16-.07-2.32-.11-3.49-.11-8.8,0-17.17,1.89-24.71,5.28C14.59,14.72,0,35.77,0,60.24,0,72.26,3.52,83.45,9.58,92.85c-3.61-7.59-5.63-16.07-5.63-25.03,0-23.7,14.13-44.11,34.43-53.24Z"/>
              <path class="cls-23" d="M38.38,14.57c7.3-3.29,15.4-5.12,23.93-5.12,1.14,0,2.26.04,3.38.11,2.39.23,7.79.37,13.41,2.84,1.78.78,3.22,1.65,4.34,2.47,1.12.73,2.08,1.61,2.87,2.58.19.24.37.48.54.73.03-.08.07-.16.1-.24,1.2-3.28.34-6.87-1.94-9.68-.82-1-1.81-1.91-2.96-2.66-1.16-.84-2.64-1.74-4.48-2.55C71.76.49,66.2.35,63.73.11c-1.16-.07-2.32-.11-3.49-.11-8.8,0-17.17,1.89-24.71,5.28C14.59,14.72,0,35.77,0,60.24,0,72.26,3.52,83.45,9.58,92.85c-3.61-7.59-5.63-16.07-5.63-25.03,0-23.7,14.13-44.11,34.43-53.24Z"/>
            </g>
          </g>
        </g>
        <path class="cls-34" d="M171,50.34c-2.97,0-9.03-4.63-14.2-4.63-2.87,0-5.4,1.33-5.4,4.41,0,7.38,27.55,6.28,27.55,24.34,0,10.58-8.93,18.61-22.59,18.61-8.92,0-22.14-5.06-22.14-12.22,0-2.42,2.42-7.05,6.83-7.05,6.17,0,8.92,5.4,16.41,5.4,4.85,0,6.28-1.55,6.28-4.51,0-7.27-27.53-6.18-27.53-24.35,0-11.01,8.91-18.51,21.48-18.51,7.81,0,19.82,3.64,19.82,11.46,0,3.64-2.76,7.04-6.5,7.04"/>
        <path class="cls-34" d="M203.51,18.24c0,4.55-3.64,8.41-8.2,8.41s-8.2-3.96-8.2-8.41c0-4.15,3.84-8,8.2-8s8.2,3.75,8.2,8M187.38,41.4c0-5.29,3.3-8.8,7.93-8.8s7.93,3.51,7.93,8.8v42.3c0,5.29-3.3,8.81-7.93,8.81s-7.93-3.52-7.93-8.81v-42.3Z"/>
        <path class="cls-34" d="M211.77,41.3c0-5.28,3.3-8.8,7.94-8.8,4.07,0,6.71,2.2,7.27,5.95,3.86-4.19,8.92-6.62,14.76-6.62,6.61,0,12.22,2.76,16.41,8.05,4.4-5.06,11.35-8.05,16.74-8.05,12.89,0,21.7,7.49,21.7,21.37v30.4c0,5.28-3.3,8.81-7.92,8.81s-7.93-3.53-7.93-8.81v-27.64c0-6.4-3.53-10.91-9.26-10.91s-9.36,4.51-9.36,10.91v27.64c0,5.28-3.31,8.81-7.93,8.81s-7.93-3.53-7.93-8.81v-27.64c0-6.4-3.52-10.91-9.25-10.91-6.49,0-9.36,4.51-9.36,10.91v27.64c0,5.28-3.31,8.81-7.93,8.81s-7.94-3.53-7.94-8.81v-42.3Z"/>
        <path class="cls-34" d="M304.76,41.3c0-5.28,3.3-8.81,7.93-8.81s6.95,2.42,7.93,6.61c2.98-4.85,9.15-7.28,15.09-7.28,17.08,0,25.56,15.98,25.56,31.39s-10.13,29.85-26.1,29.85c-4.95,0-10.35-1.88-14.55-5.5v19.38c0,5.28-3.3,8.82-7.93,8.82s-7.93-3.53-7.93-8.82V41.3ZM333.07,78.54c8.26,0,12.34-8.6,12.34-15.97s-4.08-16.2-12.34-16.2-12.45,7.94-12.45,15.64,3.75,16.53,12.45,16.53"/>
        <path class="cls-34" d="M369.42,15.75c0-5.28,3.31-8.81,7.94-8.81s7.93,3.53,7.93,8.81v67.86c0,5.28-3.31,8.81-7.93,8.81s-7.94-3.53-7.94-8.81V15.75Z"/>
        <path class="cls-34" d="M409.61,67.74c1.1,7.81,7.6,11.45,14.98,11.45,8.16,0,13.77-6.39,17.95-6.39,3.42,0,6.5,3.42,6.5,6.84,0,6.82-14.1,13.43-25.89,13.43-17.84,0-29.74-12.99-29.74-30.5,0-16.08,11.68-30.74,28.42-30.74s28.53,15.65,28.53,28.86c0,4.74-2.1,7.06-6.95,7.06h-33.81ZM434.5,57.17c-.88-6.94-5.28-12.12-12.66-12.12s-11.79,5.4-12.56,12.12h25.22Z"/>
      </g>
      <g>
        <path class="cls-33" d="M145.93,123.64c2.34,0,8.49.96,8.49,7.97,0,7.38-4.11,12.57-11.34,12.57s-8.86-4.63-8.86-8.08c0-2.45,1-12.46,11.71-12.46ZM143.18,140.25c3.93,0,5.08-6.78,5.08-9.45,0-1.26-.37-3.23-2.78-3.23-4.45,0-5.08,8.23-5.08,9.38,0,2.52,1.37,3.3,2.78,3.3Z"/>
        <path class="cls-33" d="M165.94,143.7c-1.56.37-2.89.41-3.41.41-4.23,0-5.56-1.82-5.56-4.34,0-1.41.41-3.15,1.22-6.41l1.26-5.12h-.41c-.82,0-1.41.04-2.19.07l-.22-.26c.41-1.37.67-2.37,1.04-3.74l.26-.22h2.48c.41-1.74.7-2.97,1.04-4.74l.26-.26c2.26-.52,3.86-.93,6.08-1.59l.22.26c-.3,1.04-.48,1.96-1.63,6.45,1.41-.04,2.41-.04,3.82-.11l.15.3c-.48,1.33-.82,2.3-1.15,3.71l-.33.22c-1.26-.04-2.15-.04-3.41-.04l-1.56,6.49c-.37,1.56-.7,2.97-.7,3.52,0,.67.41,1.52,1.85,1.52.96,0,1.63-.3,2.04-.44l.22.19c-.44,1.45-.7,2.45-1.11,3.86l-.26.3Z"/>
        <path class="cls-33" d="M173.73,152.89c-1.33,0-1.78-.04-2.56-.04-.7,0-3.23.04-3.71.07l-.19-.26c1.22-4.67,4.71-18.35,6.04-27.8l.26-.26c2.11-.3,4.23-.63,6.34-1.04l.22.3-.44,1.63c.78-.48,2.52-1.82,5.04-1.82s6.12,1.74,6.12,7.41c0,5.08-2.85,9.93-7.67,11.79-2.34.89-5.34.93-6.23.93h-1.19c-.59,2.82-1.15,5.74-1.78,8.86l-.26.22ZM176.69,139.69c.41.07.7.07.89.07.56,0,2.11-.15,3.52-1.11,2.22-1.52,3.37-4.45,3.37-7.08,0-2.26-1.15-3.48-2.71-3.48-1.15,0-1.82.44-2.71,1.04l-2.37,10.56Z"/>
        <path class="cls-33" d="M223.29,124.68c-1.04,4.19-1.96,8.01-2.85,12.2l-1.04,4.89c-1.3,6.15-2.37,11.34-10.49,11.34-2.22,0-5.56-.52-7.64-2.78v-.3c.56-.85.93-1.48,1.48-2.37h.3c1,1.3,2.85,2.63,5.6,2.63,5.52,0,5.97-5.12,6.38-6.38l.37-1.52c-2.45,1.7-4.63,1.74-5.45,1.74-4.37,0-6.67-3.34-6.67-7.19,0-.93.15-4.08,2.11-7.12,3.48-5.38,9.04-5.38,13.31-5.38,1.85,0,4.45-.07,4.45-.07l.15.3ZM218.73,127.35s-1.11-.04-1.45-.04c-3.34,0-6.93.59-8.97,4.93-.89,1.93-1,3.45-1,4.26,0,3.86,2.48,4.74,4.34,4.74,2.04,0,3.52-1.04,4.34-1.82l2.74-12.08Z"/>
        <path class="cls-33" d="M226.59,143.73c-1.45,0-2.45.04-3.86.07l-.19-.22c1.56-5.82,3.67-15.38,4.04-18.53l.26-.26c1.48-.19,2.56-.33,4-.63l.19.26c-.3,1.08-.52,2.04-.82,3.26.56-.93,2.19-3.67,4.82-3.67.82,0,1.33.19,1.71.41l.11.33c-.56,1.33-.93,2.26-1.45,3.63l-.37.11c-.26-.19-.85-.52-1.56-.52-1,0-3.3.52-4.45,5.34-.33,1.41-1.82,7.78-2.15,10.16l-.3.26Z"/>
        <path class="cls-33" d="M246.17,124.05c4.6,0,7.93,2.34,7.93,7.27,0,3.89-1.78,12.86-10.53,12.86-2.34,0-7.71-.56-7.71-7.41,0-6.01,3.26-12.71,10.31-12.71ZM243.64,141.44c5.6,0,6.52-9.04,6.52-10.31,0-3.6-2.19-4.37-3.86-4.37-5.12,0-6.52,7.6-6.52,10.27,0,2.37,1.11,4.41,3.86,4.41Z"/>
        <path class="cls-33" d="M270.52,143.7c-1.33.04-2.3.07-3.63.15l-.19-.26.44-1.78c-1.93,1.59-4.08,2.3-6.04,2.3-4.52,0-5.52-3.08-5.52-5.08,0-1.33.3-2.74.96-5.67l.78-3.45c.37-1.63.67-2.78,1.08-5.12l.26-.26c1.37,0,2.34-.07,3.71-.15l.19.22c-1.37,5.63-2.89,11.53-2.89,13.2,0,1.08.3,3.19,3.19,3.19,1.67,0,3.34-.7,4.93-2.15,1.93-8.67,2.78-12.86,2.97-14.05l.3-.22c1.37-.04,2.34-.11,3.74-.19l.15.26c-1.15,4.34-3.78,16.31-4.15,18.83l-.26.22Z"/>
        <path class="cls-33" d="M276.45,152.63c-.59-.04-1.15-.04-1.96-.04-.37,0-1.82.04-1.96.04l-.19-.22c1.71-6.78,4.89-19.5,6.04-27.39l.26-.26c1.48-.19,2.48-.37,3.97-.63l.19.26-.37,1.52c.96-.63,2.82-1.78,5.19-1.78,4.67,0,6.78,3.78,6.78,7.56,0,1.63-.78,12.12-13.79,12.12-.74,0-1.45,0-2.15-.04-.67,2.85-1.19,5.71-1.78,8.64l-.22.22ZM279.08,140.92c.26.07.82.11,1.33.11,8.08,0,9.93-6.45,9.93-9.01,0-3.82-2.45-4.82-4.26-4.82-1.41,0-2.97.52-4.3,1.85l-2.71,11.86Z"/>
      </g>
    </g>
  </g>
</svg>